#!OML:ASF F:\VICON\USERDATA\INSTALL\rory3\rory3.ASF
:FULLY-SPECIFIED
:DEGREES
678
root 0.219371 17.7594 -6.13331 173.792 71.7039 171.615
lowerback 10.462 -2.19537 -1.05727
upperback 1.55722 -2.86239 1.9439
thorax -4.08295 -1.35613 3.00959
lowerneck 1.20156 -13.6232 -16.385
upperneck 39.2829 -17.9197 6.80488
head 16.2358 -8.54128 3.37256
rclavicle 8.46823e-014 -1.35174e-014
rhumerus -36.0545 -12.501 -79.9596
rradius 33.1445
rwrist 6.29897
rhand -15.1988 8.76979
rfingers 7.12502
rthumb 10.973 -20.9234
lclavicle 8.46823e-014 -1.35174e-014
lhumerus -36.4231 11.3206 80.3167
lradius 37.7683
lwrist -6.10656
lhand -17.0559 27.978
lfingers 7.12502
lthumb 9.18138 57.7582
rfemur -0.13449 9.47441 25.0178
rtibia 25.1022
rfoot -17.3188 8.28371
rtoes 13.0973
lfemur -24.974 -0.145815 -21.8774
ltibia 20.1712
lfoot 5.1879 -15.0229
ltoes -1.40123
679
root 0.0986944 17.76 -6.0769 174.289 71.1999 172.272
lowerback 10.6146 -2.23685 -0.977464
upperback 1.58645 -2.89687 2.08057
thorax -4.1319 -1.37077 3.11854
lowerneck 1.37134 -13.7096 -16.4849
upperneck 39.2898 -18.015 6.74607
head 16.2265 -8.60108 3.35518
rclavicle -3.61788e-014 -1.43125e-014
rhumerus -35.9744 -11.7043 -79.98
rradius 33.4507
rwrist 6.03437
rhand -15.314 8.92401
rfingers 7.12502
rthumb 10.8619 -20.7751
lclavicle -3.61788e-014 -1.43125e-014
lhumerus -36.526 11.3587 80.5272
lradius 37.9116
lwrist -5.80766
lhand -16.9507 27.7804
lfingers 7.12502
lthumb 9.28295 57.5561
rfemur -0.313917 9.307 25.2282
rtibia 24.9309
rfoot -17.3928 7.98075
rtoes 13.8816
lfemur -25.1925 -0.401726 -21.5254
ltibia 21.2097
lfoot 4.02861 -15.0771
ltoes -1.95482
680
root -0.0217973 17.7637 -6.02107 174.794 70.6711 172.955
lowerback 10.7469 -2.2925 -0.896812
upperback 1.65216 -2.94709 2.24008
thorax -4.12921 -1.39343 3.25101
lowerneck 1.51851 -13.7909 -16.6051
upperneck 39.2529 -18.1306 6.7706
head 16.2168 -8.66454 3.37097
rclavicle -1.72943e-014 -1.19271e-014
rhumerus -35.8319 -10.5185 -80.0253
rradius 33.8487
rwrist 5.13341
rhand -15.1279 8.94295
rfingers 7.12502
rthumb 11.0414 -20.7466
lclavicle -1.72943e-014 -1.19271e-014
lhumerus -36.561 11.214 80.8285
lradius 38.0624
lwrist -5.57287
lhand -17.2844 27.9218
lfingers 7.12502
lthumb 8.96093 57.7115
rfemur -0.484379 9.04006 25.4425
rtibia 24.7332
rfoot -17.3545 7.83058
rtoes 15.5994
lfemur -25.4027 -0.621172 -21.1802
ltibia 22.5298
lfoot 2.54442 -15.0605
ltoes -2.33926
681
root -0.139862 17.7683 -5.96308 175.123 70.0438 173.411
lowerback 10.8627 -2.40855 -0.867839
upperback 1.69003 -3.08874 2.32477
thorax -4.14193 -1.46149 3.34727
lowerneck 1.6745 -13.8347 -16.6659
upperneck 39.2259 -18.2074 6.81629
head 16.1974 -8.7023 3.39618
rclavicle -3.81667e-014 4.77083e-015
rhumerus -35.6413 -9.67057 -80.2073
rradius 34.1564
rwrist 4.49672
rhand -15.0338 8.88634
rfingers 7.12502
rthumb 11.1322 -20.7984
lclavicle -3.81667e-014 4.77083e-015
lhumerus -36.5657 10.8437 81.0944
lradius 38.1772
lwrist -5.23752
lhand -17.7179 28.2938
lfingers 7.12502
lthumb 8.54259 58.101
rfemur -0.772382 8.63905 25.5736
rtibia 24.6007
rfoot -17.2344 7.6844
rtoes 17.2612
lfemur -25.647 -0.831231 -20.9192
ltibia 24.0081
lfoot 0.880038 -14.9837
ltoes -3.88469
682
root -0.253513 17.7763 -5.90398 175.387 69.5 173.779
lowerback 10.9097 -2.50878 -0.889819
upperback 1.75379 -3.21566 2.41082
thorax -4.08714 -1.52289 3.46716
lowerneck 1.7706 -13.8861 -16.7763
upperneck 39.181 -18.2827 6.84077
head 16.1862 -8.74936 3.41378
rclavicle 6.69904e-014 -2.3059e-014
rhumerus -35.4422 -8.83915 -80.4288
rradius 34.5198
rwrist 3.98092
rhand -15.2852 8.74069
rfingers 7.12502
rthumb 10.8897 -20.9569
lclavicle 6.69904e-014 -2.3059e-014
lhumerus -36.5167 10.5936 81.3576
lradius 38.3036
lwrist -4.93823
lhand -16.8217 29.2528
lfingers 7.12502
lthumb 9.40743 59.0229
rfemur -1.11365 8.2861 25.6912
rtibia 24.5089
rfoot -17.09 7.46947
rtoes 17.8088
lfemur -25.8647 -1.08467 -20.6367
ltibia 25.6286
lfoot -0.856956 -14.6263
ltoes -5.76496
683
root -0.366943 17.7832 -5.84564 175.607 69.0469 174.089
lowerback 10.9744 -2.55712 -1.00354
upperback 1.77068 -3.28197 2.55646
thorax -4.08575 -1.55195 3.69571
lowerneck 1.82766 -13.9571 -16.7882
upperneck 39.2309 -18.3516 6.76304
head 16.2045 -8.78396 3.37355
rclavicle 2.76311e-014 1.27222e-014
rhumerus -35.3819 -7.85943 -80.4983
rradius 34.9592
rwrist 3.36709
rhand -15.4641 8.603
rfingers 7.12502
rthumb 10.7171 -21.1036
lclavicle 2.76311e-014 1.27222e-014
lhumerus -36.4577 10.4922 81.6458
lradius 38.2938
lwrist -4.85139
lhand -14.2201 30.4524
lfingers 7.12502
lthumb 11.9169 60.0933
rfemur -1.46104 8.02504 25.8119
rtibia 24.397
rfoot -16.8416 7.19919
rtoes 18.0721
lfemur -26.0563 -1.51233 -20.3045
ltibia 27.4027
lfoot -2.13901 -13.769
ltoes -5.14678
684
root -0.477132 17.7891 -5.78715 175.951 68.5578 174.514
lowerback 11.0408 -2.62608 -1.08797
upperback 1.71197 -3.37367 2.7049
thorax -4.16346 -1.59281 3.91766
lowerneck 2.06552 -14.0048 -16.9274
upperneck 39.317 -18.402 6.73554
head 16.227 -8.82585 3.39072
rclavicle 9.93923e-014 -3.81667e-014
rhumerus -35.4029 -7.22171 -80.4816
rradius 35.2879
rwrist 3.0848
rhand -15.2225 8.58847
rfingers 7.12502
rthumb 10.9502 -21.106
lclavicle 9.93923e-014 -3.81667e-014
lhumerus -36.5219 10.2609 81.8795
lradius 38.2798
lwrist -4.94306
lhand -12.8897 29.9743
lfingers 7.12502
lthumb 13.1995 59.5365
rfemur -1.79165 7.87443 26.0355
rtibia 24.2637
rfoot -16.6083 6.62921
rtoes 17.2125
lfemur -26.2488 -2.04917 -19.9031
ltibia 29.3033
lfoot -3.10523 -12.7889
ltoes -4.36909
